<svg xmlns="http://www.w3.org/2000/svg" viewBox="0 0 64 64">
  <defs>
    <linearGradient id="g" x1="0" y1="0" x2="1" y2="1">
      <stop offset="0" stop-color="#0e7c86"/>
      <stop offset="1" stop-color="#35d0c5"/>
    </linearGradient>
  </defs>
  <rect width="64" height="64" rx="16" fill="url(#g)"/>
  <g fill="none" stroke="#d24d3e" stroke-width="5.4" stroke-linecap="round" opacity="0.65"
     transform="translate(32,32) scale(1.02) translate(-12,-26)">
    <path d="M1.5 9 V43"/>
    <path d="M22.5 9 V43"/>
    <path d="M1.5 26 H22.5"/>
  </g>
  <g fill="none" stroke="#fff" stroke-width="3.4" stroke-linecap="round" stroke-linejoin="round"
     transform="translate(32,32) scale(1.02) translate(-12,-26)">
    <circle cx="12" cy="4.5" r="2.6"/>
    <path d="M12 7.5 V48"/>
    <path d="M17.5 10.5 C22 13 20.5 17.5 12 18.5 C4.5 19.4 3 23.5 7 26 C10 27.8 16.5 27.5 18 31 C19.3 34.2 15.5 36.5 12 37 C8.5 37.5 5.5 39.5 7.5 42.5"/>
  </g>
</svg>
